name rise44.9368peak50.754fall52.0217.mot
datacolumns 19
datarows 29
range 3.69999700000000 3.74665900000000
endheader
time	ground_force1_vx	ground_force1_vy	ground_force1_vz	ground_force1_px	ground_force1_py	ground_force1_pz	ground_force2_vx	ground_force2_vy	ground_force2_vz	ground_force2_px	ground_force2_py	ground_force2_pz	ground_torque1_x	ground_torque1_y	ground_torque1_z	ground_torque2_x	ground_torque2_y	ground_torque2_z	
3.69999700000000	-60.89346500000000	830.46561999999994	66.24759400000001	0.15862200000000	0.00000000000000	0.10734200000000	0.00000000000000	0.00000000000000	0.00000000000000	0.00000000000000	0.00000000000000	0.00000000000000	0.00000000000000	32.26331000000000	0.00000000000000	0.00000000000000	0.00000000000000	0.00000000000000	
3.70165500000000	-61.50705900000000	830.11971700000004	66.34986600000001	0.15765000000000	0.00000000000000	0.10734100000000	-0.55114600000000	3.26983200000000	0.63888000000000	0.00000000000000	0.00000000000000	0.00000000000000	0.00000000000000	32.24982500000000	0.00000000000000	0.00000000000000	0.27867000000000	0.00000000000000	
3.70332100000000	-62.12455700000000	829.64595099999997	66.42824700000000	0.15667600000000	0.00000000000000	0.10733500000000	-0.82763800000000	6.59795600000000	1.14114900000000	0.00000000000000	0.00000000000000	0.00000000000000	0.00000000000000	32.23072500000000	0.00000000000000	0.00000000000000	0.50617500000000	0.00000000000000	
3.70499000000000	-62.74607200000000	829.04161499999998	66.48190000000000	0.15570000000000	0.00000000000000	0.10732600000000	-1.12792700000000	10.65907300000000	1.73410300000000	0.00000000000000	0.00000000000000	0.00000000000000	0.00000000000000	32.20598100000000	0.00000000000000	0.00000000000000	0.77632800000000	0.00000000000000	
3.70665300000000	-63.37167500000000	828.30403000000001	66.51001900000000	0.15472500000000	0.00000000000000	0.10731300000000	-1.43889700000000	15.42092700000000	2.40707400000000	0.00000000000000	0.00000000000000	0.00000000000000	0.00000000000000	32.17557400000000	0.00000000000000	0.00000000000000	1.08478100000000	0.00000000000000	
3.70832400000000	-64.00139799999999	827.43055500000003	66.51183600000000	0.15374900000000	0.00000000000000	0.10729600000000	-1.74508000000000	20.82004100000000	3.14471600000000	0.00000000000000	0.00000000000000	0.00000000000000	0.00000000000000	32.13949000000000	0.00000000000000	0.00000000000000	1.42508100000000	0.00000000000000	
3.70999200000000	-64.63522600000000	826.41858000000002	66.48662200000000	0.15277400000000	0.00000000000000	0.10727400000000	-2.02960200000000	26.76660300000000	3.92802200000000	0.35722400000000	0.00000000000000	-0.08898600000000	0.00000000000000	32.09772000000000	0.00000000000000	0.00000000000000	3.01168100000000	0.00000000000000	
3.71165800000000	-65.27310199999999	825.26552700000002	66.43369000000000	0.15180100000000	0.00000000000000	0.10724800000000	-2.27532800000000	33.15212700000000	4.73573900000000	0.36437100000000	0.00000000000000	-0.08961900000000	0.00000000000000	32.05026400000000	0.00000000000000	0.00000000000000	3.68933800000000	0.00000000000000	
3.71332200000000	-65.91492000000000	823.96885799999995	66.35239799999999	0.15083100000000	0.00000000000000	0.10721700000000	-2.46604700000000	39.85887400000000	5.54601200000000	0.37060000000000	0.00000000000000	-0.09018600000000	0.00000000000000	31.99712200000000	0.00000000000000	0.00000000000000	4.38427800000000	0.00000000000000	
3.71498700000000	-66.56052400000000	822.52606600000001	66.24214800000000	0.14986400000000	0.00000000000000	0.10718200000000	-2.58756000000000	46.76968100000000	6.33800200000000	0.37609100000000	0.00000000000000	-0.09069800000000	0.00000000000000	31.93830300000000	0.00000000000000	0.00000000000000	5.07993600000000	0.00000000000000	
3.71665900000000	-67.20971000000000	820.93468600000006	66.10239100000000	0.14890200000000	0.00000000000000	0.10714100000000	-2.62851400000000	53.77687700000000	7.09330100000000	0.38098400000000	0.00000000000000	-0.09116600000000	0.00000000000000	31.87381600000000	0.00000000000000	0.00000000000000	5.76131800000000	0.00000000000000	
3.71832400000000	-67.86221800000000	819.19229199999995	65.93262799999999	0.14794500000000	0.00000000000000	0.10709500000000	-2.58092200000000	60.78933800000000	7.79697200000000	0.38538600000000	0.00000000000000	-0.09159500000000	0.00000000000000	31.80367600000000	0.00000000000000	0.00000000000000	6.41590000000000	0.00000000000000	
3.71999000000000	-68.51773700000000	817.29650000000004	65.73241100000000	0.14699400000000	0.00000000000000	0.10704300000000	-2.44034000000000	67.73716100000000	8.43815800000000	0.38938200000000	0.00000000000000	-0.09199200000000	0.00000000000000	31.72789900000000	0.00000000000000	0.00000000000000	7.03419300000000	0.00000000000000	
3.72167300000000	-69.17589900000000	815.24496999999997	65.50134600000000	0.14605200000000	0.00000000000000	0.10698600000000	-2.20573500000000	74.57386500000000	9.01026800000000	0.39303800000000	0.00000000000000	-0.09236200000000	0.00000000000000	31.64650200000000	0.00000000000000	0.00000000000000	7.60998300000000	0.00000000000000	
3.72332400000000	-69.83627900000000	813.03541399999995	65.23909300000000	0.14511800000000	0.00000000000000	0.10692300000000	-1.87909000000000	81.27629300000000	9.51077600000000	0.39641100000000	0.00000000000000	-0.09270700000000	0.00000000000000	31.55950200000000	0.00000000000000	0.00000000000000	8.14025000000000	0.00000000000000	
3.72498800000000	-70.49839600000000	810.66559500000005	64.94536700000000	0.14419400000000	0.00000000000000	0.10685300000000	-1.46484200000000	87.84261100000001	9.94072600000000	0.39954200000000	0.00000000000000	-0.09303100000000	0.00000000000000	31.46691800000000	0.00000000000000	0.00000000000000	8.62484300000000	0.00000000000000	
3.72666100000000	-71.16170800000000	808.13333100000000	64.61994400000000	0.14328100000000	0.00000000000000	0.10677800000000	-0.96920800000000	94.28890199999999	10.30402300000000	0.40246900000000	0.00000000000000	-0.09333700000000	0.00000000000000	31.36876700000000	0.00000000000000	0.00000000000000	9.06597700000000	0.00000000000000	
3.72831900000000	-71.82561500000000	805.43650300000002	64.26265300000000	0.14238100000000	0.00000000000000	0.10669700000000	-0.39948700000000	100.64488100000000	10.60662100000000	0.40522100000000	0.00000000000000	-0.09362700000000	0.00000000000000	31.26506300000000	0.00000000000000	0.00000000000000	9.46761400000000	0.00000000000000	
3.72999400000000	-72.48945600000000	802.57305899999994	63.87338600000000	0.14149400000000	0.00000000000000	0.10660900000000	0.23660700000000	106.94923100000000	10.85567200000000	0.40782200000000	0.00000000000000	-0.09390200000000	0.00000000000000	31.15581700000000	0.00000000000000	0.00000000000000	9.83481400000000	0.00000000000000	
3.73165700000000	-73.15250700000000	799.54101600000001	63.45209300000000	0.14062300000000	0.00000000000000	0.10651400000000	0.93152200000000	113.24502600000000	11.05874300000000	0.41029300000000	0.00000000000000	-0.09416500000000	0.00000000000000	31.04103900000000	0.00000000000000	0.00000000000000	10.17310600000000	0.00000000000000	
3.73333100000000	-73.81398500000000	796.33847000000003	62.99878700000000	0.13976600000000	0.00000000000000	0.10641300000000	1.67834000000000	119.57557100000000	11.22311400000000	0.41265100000000	0.00000000000000	-0.09441700000000	0.00000000000000	30.92073200000000	0.00000000000000	0.00000000000000	10.48792800000000	0.00000000000000	
3.73499500000000	-74.47304400000000	792.96359900000004	62.51353900000000	0.13892800000000	0.00000000000000	0.10630500000000	2.47110900000000	125.98092600000000	11.35523600000000	0.41491000000000	0.00000000000000	-0.09465800000000	0.00000000000000	30.79489500000000	0.00000000000000	0.00000000000000	10.78416800000000	0.00000000000000	
3.73666000000000	-75.12877500000000	789.41467100000000	61.99648200000000	0.13810700000000	0.00000000000000	0.10619000000000	3.30504700000000	132.49526100000000	11.46033800000000	0.41708300000000	0.00000000000000	-0.09489000000000	0.00000000000000	30.66352000000000	0.00000000000000	0.00000000000000	11.06582400000000	0.00000000000000	
3.73832600000000	-75.78020700000000	785.69005200000004	61.44781400000000	0.13730600000000	0.00000000000000	0.10606800000000	4.17660800000000	139.14509600000000	11.54219100000000	0.41917800000000	0.00000000000000	-0.09511500000000	0.00000000000000	30.52659500000000	0.00000000000000	0.00000000000000	11.33579400000000	0.00000000000000	
3.73998600000000	-76.42630800000001	781.78820599999995	60.86779000000000	0.13652500000000	0.00000000000000	0.10593900000000	5.08345100000000	145.94840199999999	11.60303700000000	0.42120500000000	0.00000000000000	-0.09533200000000	0.00000000000000	30.38409700000000	0.00000000000000	0.00000000000000	11.59577900000000	0.00000000000000	
3.74167100000000	-77.06598300000000	777.70771200000001	60.25673100000000	0.13576600000000	0.00000000000000	0.10580200000000	6.02431500000000	152.91448099999999	11.64362700000000	0.42317000000000	0.00000000000000	-0.09554200000000	0.00000000000000	30.23599800000000	0.00000000000000	0.00000000000000	11.84629500000000	0.00000000000000	
3.74332100000000	-77.69807700000000	773.44726100000003	59.61501700000000	0.13502900000000	0.00000000000000	0.10565900000000	6.99882900000000	160.04447400000001	11.66338300000000	0.42507900000000	0.00000000000000	-0.09574700000000	0.00000000000000	30.08226200000000	0.00000000000000	0.00000000000000	12.08676900000000	0.00000000000000	
3.74499200000000	-78.32137700000000	769.00567100000001	58.94308900000000	0.13431600000000	0.00000000000000	0.10550800000000	8.00729000000000	167.33237299999999	11.66061200000000	0.42693600000000	0.00000000000000	-0.09594700000000	0.00000000000000	29.92284400000000	0.00000000000000	0.00000000000000	12.31569700000000	0.00000000000000	
3.74665900000000	-78.93460800000000	764.38189000000000	58.24145100000000	0.13362800000000	0.00000000000000	0.10534900000000	9.05042700000000	174.76633799999999	11.63278200000000	0.42874700000000	0.00000000000000	-0.09614200000000	0.00000000000000	29.75768900000000	0.00000000000000	0.00000000000000	12.53084900000000	0.00000000000000	
